<?xml version="1.0" ?><svg id="Layer_1" style="enable-background:new 0 0 512 512;" version="1.1" viewBox="0 0 512 512" xml:space="preserve" xmlns="http://www.w3.org/2000/svg" xmlns:xlink="http://www.w3.org/1999/xlink"><style type="text/css">
	.st0{opacity:0.33;}
	.st1{fill:#96D7FF;}
	.st2{fill:#FFFFFF;}
	.st3{fill:#FF99B1;}
	.st4{fill:#2866AE;}
	.st5{fill:#F7C6D2;}
	.st6{fill:#DD6B89;}
</style><g class="st0"><path class="st1" d="M504.7,194.6c-7.3-49.7-44.8-89.6-94.1-100c-17-3.6-32.4-12.8-43.6-26.2   C330.9,25.8,273.9,7.1,219.6,20C165.3,33,123,75.4,110,129.8c-5.9,23.7-21.7,43.6-43.5,54.7C9.8,213.9-18.5,290.3,33.1,362   c6.8,8.5,15.5,15.3,25.4,19.6c18.2,9.1,32.5,24.6,40,43.5c13.1,32,40,56.3,73.1,66.1c33.1,9.8,69,4.1,97.4-15.6   c19.4-13.6,43.7-17.8,66.6-11.7c38.8,10.6,80.3,0.2,109.7-27.4c29.3-27.5,42.3-68.3,34.3-107.7c-3.7-19.4-0.1-39.6,10-56.5   C503.3,248.9,508.7,221.5,504.7,194.6L504.7,194.6z" id="Shape"/><g><path class="st2" d="M460.2,278.9c-2.1-0.9-4.6-0.4-6.2,1.2c-1,1.1-1.6,2.5-1.6,4c0,0.7,0.1,1.5,0.4,2.1c0.3,0.8,0.7,1.3,1.2,1.9    c0.5,0.5,1.2,0.9,1.9,1.2c0.7,0.3,1.4,0.5,2.1,0.5l0,0c1.5,0,3-0.6,4-1.6c0.5-0.5,0.8-1.2,1.2-1.8c0.3-0.7,0.4-1.4,0.4-2.1    C463.7,281.8,462.3,279.7,460.2,278.9z"/><path class="st2" d="M446.7,301.1h-33.9c-3.1,0-5.7,2.5-5.7,5.7c0,3.1,2.5,5.6,5.7,5.6h33.9c3.1,0,5.7-2.6,5.7-5.6    C452.4,303.6,449.9,301.1,446.7,301.1z"/><path class="st2" d="M395.8,289.8h39.6c3.1,0,5.7-2.5,5.7-5.6s-2.5-5.7-5.7-5.7h-39.6c-3.1,0-5.6,2.6-5.6,5.7    C390.2,287.2,392.7,289.8,395.8,289.8z"/><path class="st2" d="M395.8,306.7c0-3.1-2.6-5.7-5.6-5.7h-11.3c-3.1,0-5.7,2.5-5.7,5.7c0,3.1,2.5,5.6,5.7,5.6h11.3    C393.3,312.4,395.8,309.8,395.8,306.7z"/><path class="st2" d="M435.4,323.7h-45.3c-3.1,0-5.7,2.5-5.7,5.7c0,3.1,2.5,5.6,5.7,5.6h45.3c3.1,0,5.7-2.6,5.7-5.6    C441.1,326.2,438.6,323.7,435.4,323.7z"/></g><g><path class="st2" d="M94,272.7c-0.6,0.3-1.2,0.7-1.7,1.2c-0.6,0.5-1,1.1-1.2,1.8c-0.6,1.3-0.6,2.8,0,4.1c0.3,0.6,0.7,1.3,1.2,1.7    c1,1.1,2.3,1.7,3.8,1.7v0.1c0.7,0,1.4-0.2,2.1-0.5c0.6-0.3,1.3-0.7,1.7-1.2c0.5-0.5,0.9-1,1.2-1.8c0.2-0.7,0.4-1.3,0.4-2.1    c0-1.4-0.6-2.8-1.6-3.9C98.4,272.4,96,271.9,94,272.7z"/><path class="st2" d="M101.6,250.5h-11c-3,0-5.5,2.4-5.5,5.5c0,3,2.5,5.4,5.4,5.4h11l0,0c3,0,5.4-2.5,5.4-5.4    C107,252.9,104.6,250.5,101.6,250.5z"/><path class="st2" d="M117.9,228.6H63.3c-3,0-5.5,2.5-5.5,5.5s2.4,5.4,5.5,5.4h54.6c3,0,5.5-2.4,5.5-5.4    C123.4,231.1,120.9,228.6,117.9,228.6z"/><path class="st2" d="M46.9,261.4h21.8c3,0,5.5-2.5,5.5-5.4c0-3-2.4-5.5-5.5-5.5H46.9c-3,0-5.4,2.4-5.4,5.5    C41.5,258.9,44,261.4,46.9,261.4z"/><path class="st2" d="M74.3,272.3H30.6c-3,0-5.5,2.4-5.5,5.5c0,3,2.4,5.5,5.5,5.5h43.7c3,0,5.4-2.4,5.4-5.5    C79.7,274.7,77.2,272.3,74.3,272.3z"/></g></g><g><g><path class="st3" d="M259.4,100.6c-17.4,0-34.8,2.8-51.1,8.5c-38,13-70.1,41.1-88.1,77.1c-6.2,12.3-10.8,25.5-13.5,39.1    c-6.9,34-2.1,69.7,13.5,100.5c10.1,20,24.7,38,42.2,51.9c16.6,13.2,36.1,23.1,56.5,28.5c25,6.7,52.6,7,79.7,0.8    c24.1-5.6,46.1-17,63.4-33c18.3-16.8,31.9-39.1,39.2-64.4c7.3-25,8.8-52.3,4.6-79.2c-42.1,0-84.3,0-126.4,0h-15.8    c0,5.8,0,11.6,0,17.4c0,12,0,24,0,36.1c27.6,0,55.1,0,82.7,0h5.3l-0.9,5.2c-3.6,21.3-16,40.4-34,52.4    c-10.7,7.2-23.5,12.2-36.9,14.6c-14.1,2.4-27.5,2.4-39.8-0.1c-13.2-2.6-26.1-8.2-37.3-16.1c-17.7-12.4-31.3-30.7-38.3-51.4    c-7.2-21.1-7.2-44.3,0-65.2c5-14.8,13.4-28.4,24.3-39.4c13.6-13.9,31.4-23.8,50-27.8c16.3-3.5,33.3-2.8,49.2,2    c12,3.7,23.4,10,33,18.4c5-4.9,9.9-9.9,14.9-14.8c3.8-3.8,7.7-7.7,11.5-11.5c2-2,4-4,6-6c2.1-2.1,4.2-4.2,6.3-6.3    c-14-12.2-30-21.9-46.6-27.9C296,103.7,277.7,100.6,259.4,100.6z"/><path class="st4" d="M414.3,225.2l-0.7-3.7h-3.8c-43.4,0-86.8,0-130.2,0h-24.8v4.5c0,7.3,0,14.6,0,21.9c0,13.6,0,27.1,0,40.6v4.5    h4.5c27.2,0,54.4,0,81.6,0c-4.2,16.6-14.8,31.7-29,41.2c-9.7,6.5-21.3,11.1-33.5,13.2c-12.9,2.2-25.2,2.2-36.5-0.1    c-12-2.3-23.7-7.4-33.9-14.6c-16.2-11.4-28.6-28-35-46.9c-6.6-19.2-6.6-40.3,0-59.4c4.6-13.5,12.3-26,22.2-36    c12.4-12.7,28.5-21.7,45.5-25.3c14.8-3.2,30.3-2.6,44.7,1.8c12.1,3.7,23.4,10.3,32.7,19.2l3.2,3l3.1-3.1c6-6,11.9-11.9,17.9-17.9    c3.9-3.9,7.7-7.7,11.6-11.6c1.9-2,3.9-4,5.9-5.9c3.2-3.2,6.5-6.5,9.7-9.9l3-3.3l-3.3-3c-15.9-14.7-33.7-25.7-53-32.8    c-35.5-13.1-74.9-13.4-110.8-1c-40.2,13.7-74.2,43.5-93.2,81.6c-6.6,13-11.4,26.9-14.3,41.3c-7.4,35.9-2.3,73.7,14.1,106.3    c10.7,21.2,26.2,40.2,44.7,54.9c17.6,13.9,38.2,24.4,59.8,30.1c13.9,3.7,28.4,5.6,43.2,5.6c13.5,0,27.3-1.5,41.2-4.6    c25.7-5.9,49-18,67.5-35.1c19.5-18,33.9-41.6,41.7-68.5C418.1,284.7,419.5,254.6,414.3,225.2z M401.2,309.6    c-7.3,25.3-20.9,47.6-39.2,64.4c-17.3,16-39.3,27.4-63.4,33c-27.1,6.2-54.7,5.9-79.7-0.8c-20.4-5.4-39.9-15.3-56.5-28.5    c-17.5-13.9-32.1-31.9-42.2-51.9c-15.6-30.8-20.4-66.5-13.5-100.5c2.7-13.6,7.3-26.8,13.5-39.1c18-36,50.1-64.1,88.1-77.1    c16.3-5.7,33.7-8.5,51.1-8.5c18.3,0,36.6,3.1,53.6,9.4c16.6,6,32.6,15.7,46.6,27.9c-2.1,2.1-4.2,4.2-6.3,6.3c-2,2-4,4-6,6    c-3.8,3.8-7.7,7.7-11.5,11.5c-5,4.9-9.9,9.9-14.9,14.8c-9.6-8.4-21-14.7-33-18.4c-15.9-4.8-32.9-5.5-49.2-2    c-18.6,4-36.4,13.9-50,27.8c-10.9,11-19.3,24.6-24.3,39.4c-7.2,20.9-7.2,44.1,0,65.2c7,20.7,20.6,39,38.3,51.4    c11.2,7.9,24.1,13.5,37.3,16.1c12.3,2.5,25.7,2.5,39.8,0.1c13.4-2.4,26.2-7.4,36.9-14.6c18-12,30.4-31.1,34-52.4l0.9-5.2h-5.3    c-27.6,0-55.1,0-82.7,0c0-12.1,0-24.1,0-36.1c0-5.8,0-11.6,0-17.4h15.8c42.1,0,84.3,0,126.4,0C410,257.3,408.5,284.6,401.2,309.6z    "/><path class="st5" d="M263.6,230.4c0,5.8,0,11.6,0,17.4c0,12,0,24,0,36.1c27.6,0,55.1,0,82.7,0h5.3l-0.9,5.2    c-3.6,21.3-16,40.4-34,52.4c-10.7,7.2-23.5,12.2-36.9,14.6c-14.1,2.4-27.5,2.4-39.8-0.1c-13.2-2.6-26.1-8.2-37.3-16.1    c-17.7-12.4-31.3-30.7-38.3-51.4c-7.2-21.1-7.2-44.3,0-65.2c5-14.8,13.4-28.4,24.3-39.4c13.6-13.9,31.4-23.8,50-27.8    c16.3-3.5,33.3-2.8,49.2,2c12,3.7,23.4,10,33,18.4c5-4.9,9.9-9.9,14.9-14.8c2-2,4-4,6-6c-23-19.8-53-31.7-85.8-31.7    c-72.9,0-132,59.1-132,132s59.1,132,132,132s132-59.1,132-132c0-8.7-0.9-17.3-2.5-25.6c-35.4,0-70.8,0-106.1,0H263.6z"/><path class="st6" d="M332.4,118.8l-38,41.6c9.6,3.8,18.7,9.3,26.6,16.1c5-4.9,9.9-9.9,14.9-14.8c3.8-3.8,7.7-7.7,11.5-11.5    c2-2,4-4,6-6c2.1-2.1,4.2-4.2,6.3-6.3C351.2,130.6,342,124.1,332.4,118.8z"/></g><path class="st6" d="M408.1,260.9c0-10.1-0.7-20.3-2.3-30.5c-42.1,0-84.3,0-126.4,0h-15.8c0,5.8,0,11.6,0,17.4c0,4.4,0,8.7,0,13.1   H408.1z"/></g></svg>