<?xml version="1.0" ?><svg id="Layer_1" style="enable-background:new 0 0 512 512;" version="1.1" viewBox="0 0 512 512" xml:space="preserve" xmlns="http://www.w3.org/2000/svg" xmlns:xlink="http://www.w3.org/1999/xlink"><style type="text/css">
	.st0{opacity:0.33;}
	.st1{fill:#96D7FF;}
	.st2{fill:#FFFFFF;}
	.st3{fill:#FF99B1;}
	.st4{fill:#2866AE;}
</style><g class="st0"><path class="st1" d="M504.7,194.6c-7.3-49.7-44.8-89.6-94.1-100c-17-3.6-32.4-12.8-43.6-26.2   C330.9,25.8,273.9,7.1,219.6,20C165.3,33,123,75.4,110,129.8c-5.9,23.7-21.7,43.6-43.5,54.7C9.8,213.9-18.5,290.3,33.1,362   c6.8,8.5,15.5,15.3,25.4,19.6c18.2,9.1,32.5,24.6,40,43.5c13.1,32,40,56.3,73.1,66.1c33.1,9.8,69,4.1,97.4-15.6   c19.4-13.6,43.7-17.8,66.6-11.7c38.8,10.6,80.3,0.2,109.7-27.4c29.3-27.5,42.3-68.3,34.3-107.7c-3.7-19.4-0.1-39.6,10-56.5   C503.3,248.9,508.7,221.5,504.7,194.6L504.7,194.6z" id="Shape"/><g><path class="st2" d="M460.2,278.9c-2.1-0.9-4.6-0.4-6.2,1.2c-1,1.1-1.6,2.5-1.6,4c0,0.7,0.1,1.5,0.4,2.1c0.3,0.8,0.7,1.3,1.2,1.9    c0.5,0.5,1.2,0.9,1.9,1.2c0.7,0.3,1.4,0.5,2.1,0.5l0,0c1.5,0,3-0.6,4-1.6c0.5-0.5,0.8-1.2,1.2-1.8c0.3-0.7,0.4-1.4,0.4-2.1    C463.7,281.8,462.3,279.7,460.2,278.9z"/><path class="st2" d="M446.7,301.1h-33.9c-3.1,0-5.7,2.5-5.7,5.7c0,3.1,2.5,5.6,5.7,5.6h33.9c3.1,0,5.7-2.6,5.7-5.6    C452.4,303.6,449.9,301.1,446.7,301.1z"/><path class="st2" d="M395.8,289.8h39.6c3.1,0,5.7-2.5,5.7-5.6s-2.5-5.7-5.7-5.7h-39.6c-3.1,0-5.6,2.6-5.6,5.7    C390.2,287.2,392.7,289.8,395.8,289.8z"/><path class="st2" d="M395.8,306.7c0-3.1-2.6-5.7-5.6-5.7h-11.3c-3.1,0-5.7,2.5-5.7,5.7c0,3.1,2.5,5.6,5.7,5.6h11.3    C393.3,312.4,395.8,309.8,395.8,306.7z"/><path class="st2" d="M435.4,323.7h-45.3c-3.1,0-5.7,2.5-5.7,5.7c0,3.1,2.5,5.6,5.7,5.6h45.3c3.1,0,5.7-2.6,5.7-5.6    C441.1,326.2,438.6,323.7,435.4,323.7z"/></g><g><path class="st2" d="M94,272.7c-0.6,0.3-1.2,0.7-1.7,1.2c-0.6,0.5-1,1.1-1.2,1.8c-0.6,1.3-0.6,2.8,0,4.1c0.3,0.6,0.7,1.3,1.2,1.7    c1,1.1,2.3,1.7,3.8,1.7v0.1c0.7,0,1.4-0.2,2.1-0.5c0.6-0.3,1.3-0.7,1.7-1.2c0.5-0.5,0.9-1,1.2-1.8c0.2-0.7,0.4-1.3,0.4-2.1    c0-1.4-0.6-2.8-1.6-3.9C98.4,272.4,96,271.9,94,272.7z"/><path class="st2" d="M101.6,250.5h-11c-3,0-5.5,2.4-5.5,5.5c0,3,2.5,5.4,5.4,5.4h11l0,0c3,0,5.4-2.5,5.4-5.4    C107,252.9,104.6,250.5,101.6,250.5z"/><path class="st2" d="M117.9,228.6H63.3c-3,0-5.5,2.5-5.5,5.5s2.4,5.4,5.5,5.4h54.6c3,0,5.5-2.4,5.5-5.4    C123.4,231.1,120.9,228.6,117.9,228.6z"/><path class="st2" d="M46.9,261.4h21.8c3,0,5.5-2.5,5.5-5.4c0-3-2.4-5.5-5.5-5.5H46.9c-3,0-5.4,2.4-5.4,5.5    C41.5,258.9,44,261.4,46.9,261.4z"/><path class="st2" d="M74.3,272.3H30.6c-3,0-5.5,2.4-5.5,5.5c0,3,2.4,5.5,5.5,5.5h43.7c3,0,5.4-2.4,5.4-5.5    C79.7,274.7,77.2,272.3,74.3,272.3z"/></g></g><g><path class="st3" d="M195.4,110.6c-24.9,0-46.2,8.1-61.5,23.4s-23.4,36.5-23.4,61.5v120.4c0,25.4,8.4,47,24.4,62.6   c15.5,15.1,36.7,23,61.2,23h119.8c25,0,46.3-8,61.6-23c15.7-15.2,24-36.7,24-61.9V195.5c0-24.6-8.1-45.7-23.5-61.1l0,0   c-15.4-15.6-36.7-23.8-61.5-23.8H195.4z"/><path class="st4" d="M384.5,128c-17.1-17.3-40.6-26.5-67.9-26.5H195.5c-27.4,0-50.8,9-67.9,26.1c-17.1,17-26.1,40.5-26.1,67.9V316   c0,27.9,9.3,51.7,27.1,69c17.3,16.8,40.6,25.6,67.5,25.6h119.7c27.5,0,51-8.9,68.1-25.6c17.5-17,26.7-40.6,26.7-68.4V195.5   C410.5,168.5,401.5,145.2,384.5,128z M401.5,316.6c0,25.2-8.3,46.7-24,61.9c-15.3,15-36.6,23-61.6,23H196c-24.5,0-45.7-7.9-61.2-23   c-16-15.6-24.4-37.2-24.4-62.6V195.5c0-25,8.1-46.2,23.4-61.5c15.3-15.3,36.6-23.4,61.5-23.4h121.1c24.8,0,46.1,8.2,61.5,23.8   c15.4,15.4,23.5,36.5,23.5,61.1V316.6z"/><path class="st2" d="M314.5,255.1c-0.1,32.3-26.3,58.5-58.5,58.5c-32.3,0-58.5-26.2-58.5-58.5c0-32.3,26.2-58.5,58.5-58.5   S314.5,222.9,314.5,255.1z"/><path class="st2" d="M333.8,161.6c-9.2,0-16.7,7.5-16.7,16.7c0,9.2,7.5,16.7,16.7,16.7s16.7-7.5,16.7-16.7   C350.5,169.1,342.9,161.6,333.8,161.6z"/><path class="st4" d="M256,186.5c-37.8,0-68.5,30.7-68.5,68.5c0,37.8,30.7,68.5,68.5,68.5c37.7,0,68.4-30.7,68.5-68.5   C324.5,217.3,293.7,186.5,256,186.5z M256,313.7c-32.3,0-58.5-26.2-58.5-58.5c0-32.3,26.2-58.5,58.5-58.5s58.5,26.2,58.5,58.5   C314.4,287.4,288.1,313.7,256,313.7z"/><path class="st4" d="M333.8,152.7c-14.2,0-25.7,11.5-25.7,25.7c0,14.2,11.5,25.7,25.7,25.7s25.7-11.5,25.7-25.7   C359.5,164.2,348,152.7,333.8,152.7z M333.8,195c-9.2,0-16.7-7.5-16.7-16.7c0-9.2,7.5-16.7,16.7-16.7s16.7,7.5,16.7,16.7   C350.5,187.5,343,195,333.8,195z"/></g></svg>