<?xml version="1.0" ?><svg id="Layer_1" style="enable-background:new 0 0 512 512;" version="1.1" viewBox="0 0 512 512" xml:space="preserve" xmlns="http://www.w3.org/2000/svg" xmlns:xlink="http://www.w3.org/1999/xlink"><style type="text/css">
	.st0{opacity:0.33;}
	.st1{fill:#96D7FF;}
	.st2{fill:#FFFFFF;}
	.st3{fill:#B1F1A8;}
	.st4{fill:#2866AE;}
</style><g class="st0"><path class="st1" d="M504.7,194.7c-7.3-49.7-44.8-89.6-94.1-100c-17-3.6-32.4-12.8-43.6-26.2   c-36.1-42.6-93.1-61.3-147.4-48.4C165.3,33.1,123,75.5,110,129.9c-5.9,23.7-21.7,43.6-43.5,54.7C9.8,214-18.5,290.4,33.1,362.1   c6.8,8.5,15.5,15.3,25.4,19.6c18.2,9.1,32.5,24.6,40,43.5c13.1,32,40,56.3,73.1,66.1c33.1,9.8,69,4.1,97.4-15.6   c19.4-13.6,43.7-17.8,66.6-11.7c38.8,10.6,80.3,0.2,109.7-27.4c29.3-27.5,42.3-68.3,34.3-107.7c-3.7-19.4-0.1-39.6,10-56.5   C503.3,249,508.7,221.6,504.7,194.7L504.7,194.7z" id="Shape"/><g><path class="st2" d="M460.2,279c-2.1-0.9-4.6-0.4-6.2,1.2c-1,1.1-1.6,2.5-1.6,4c0,0.7,0.1,1.5,0.4,2.1c0.3,0.8,0.7,1.3,1.2,1.9    c0.5,0.5,1.2,0.9,1.9,1.2c0.7,0.3,1.4,0.5,2.1,0.5l0,0c1.5,0,3-0.6,4-1.6c0.5-0.5,0.8-1.2,1.2-1.8c0.3-0.7,0.4-1.4,0.4-2.1    C463.7,281.9,462.3,279.8,460.2,279z"/><path class="st2" d="M446.7,301.2h-33.9c-3.1,0-5.7,2.5-5.7,5.7c0,3.1,2.5,5.6,5.7,5.6h33.9c3.1,0,5.7-2.6,5.7-5.6    C452.4,303.7,449.9,301.2,446.7,301.2z"/><path class="st2" d="M395.8,289.9h39.6c3.1,0,5.7-2.5,5.7-5.6s-2.5-5.7-5.7-5.7h-39.6c-3.1,0-5.6,2.6-5.6,5.7    C390.2,287.3,392.7,289.9,395.8,289.9z"/><path class="st2" d="M395.8,306.8c0-3.1-2.6-5.7-5.6-5.7h-11.3c-3.1,0-5.7,2.5-5.7,5.7c0,3.1,2.5,5.6,5.7,5.6h11.3    C393.3,312.5,395.8,309.9,395.8,306.8z"/><path class="st2" d="M435.4,323.8h-45.3c-3.1,0-5.7,2.5-5.7,5.7c0,3.1,2.5,5.6,5.7,5.6h45.3c3.1,0,5.7-2.6,5.7-5.6    C441.1,326.3,438.6,323.8,435.4,323.8z"/></g><g><path class="st2" d="M94,272.8c-0.6,0.3-1.2,0.7-1.7,1.2c-0.6,0.5-1,1.1-1.2,1.8c-0.6,1.3-0.6,2.8,0,4.1c0.3,0.6,0.7,1.3,1.2,1.7    c1,1.1,2.3,1.7,3.8,1.7v0.1c0.7,0,1.4-0.2,2.1-0.5c0.6-0.3,1.3-0.7,1.7-1.2c0.5-0.5,0.9-1,1.2-1.8c0.2-0.7,0.4-1.3,0.4-2.1    c0-1.4-0.6-2.8-1.6-3.9C98.4,272.5,96,272,94,272.8z"/><path class="st2" d="M101.6,250.6h-11c-3,0-5.5,2.4-5.5,5.5c0,3,2.5,5.4,5.4,5.4h11l0,0c3,0,5.4-2.5,5.4-5.4    C107,253,104.6,250.6,101.6,250.6z"/><path class="st2" d="M117.9,228.7H63.3c-3,0-5.5,2.5-5.5,5.5s2.4,5.4,5.5,5.4h54.6c3,0,5.5-2.4,5.5-5.4    C123.4,231.2,120.9,228.7,117.9,228.7z"/><path class="st2" d="M46.9,261.5h21.8c3,0,5.5-2.5,5.5-5.4c0-3-2.4-5.5-5.5-5.5H46.9c-3,0-5.4,2.4-5.4,5.5    C41.5,259,44,261.5,46.9,261.5z"/><path class="st2" d="M74.3,272.4H30.6c-3,0-5.5,2.4-5.5,5.5c0,3,2.4,5.5,5.5,5.5h43.7c3,0,5.4-2.4,5.4-5.5    C79.7,274.8,77.2,272.4,74.3,272.4z"/></g></g><g><path class="st3" d="M257.5,114.1c-77,0-139.7,62.7-139.7,139.7c0,24.5,6.4,48.7,18.7,69.9l0.9,1.6l-18.9,69l70.7-18.5l1.6,0.9   c20.4,11.1,43.5,17,66.8,17c77.1,0,139.8-62.7,139.8-139.7c0-37.3-14.5-72.5-40.9-98.9l0,0C330,128.7,295,114.1,257.5,114.1z"/><path class="st4" d="M362.8,148.6c-28.1-28.1-65.4-43.6-105.2-43.6c-81.9,0-148.7,66.7-148.7,148.7c0,25.5,6.5,50.6,18.9,72.7   l-22,80.5l82.2-21.7c21.3,11.3,45.3,17.3,69.6,17.3c81.9,0,148.7-66.7,148.7-148.7C406.3,214.1,390.9,176.8,362.8,148.6z    M257.7,393.6c-23.3,0-46.4-5.9-66.8-17l-1.6-0.9l-70.7,18.5l18.9-69l-0.9-1.6c-12.3-21.2-18.7-45.4-18.7-69.9   c0-77,62.7-139.7,139.7-139.7c37.4,0,72.5,14.6,99,41c26.4,26.4,40.9,61.6,40.9,98.9C397.5,330.9,334.8,393.6,257.7,393.6z"/><path class="st2" d="M206.4,191.7c-0.8,0-3.7,0.2-6.3,3c-0.2,0.2-0.5,0.5-0.7,0.8c-3.5,3.7-10.7,11.4-10.7,26.2   c0,15,10.6,30.2,13.8,34.5c0.2,0.2,0.4,0.6,0.8,1.1c9.9,14.2,30.7,39.7,59,52c8,3.5,14.4,5.6,20.1,7.4c8.4,2.7,15.8,2,20.7,1.3   c6.2-0.9,18.6-8.2,20.8-14.2c2.3-6.4,2.5-11.5,2.3-13.3c-0.6-0.4-1.8-1-2.9-1.5c-0.6-0.3-1.3-0.6-2-1c-4.7-2.3-21.3-10.5-24.2-11.5   c-1.1-0.4-1.9-0.6-2.2-0.7c-0.1,0.1-0.3,0.3-0.6,0.7c-3,4.6-11.7,14.5-11.8,14.6c-5.2,6-11.2,3-13.2,2c-0.5-0.2-1.3-0.6-2.2-1   c-5.1-2.2-15.7-6.8-27.8-17.6c-10.8-9.7-18.3-21.4-20.9-26.1c-3.9-6.7,0.6-11.1,2.3-12.8c0.9-0.9,2.1-2.4,3.3-3.8   c0.6-0.8,1.3-1.6,1.9-2.3c1.2-1.4,1.6-2.3,2.5-4l0.5-1.1c0.2-0.5,0.4-0.9-0.3-2.3c-0.6-1.3-3.2-7.4-7.3-17.4c-1.5-3.7-3-7.2-4-9.6   c-1.4-3.4-2.1-3.4-3.1-3.4c-0.4,0-0.7,0-1.1,0C211.1,191.7,208.4,191.7,206.4,191.7z"/><path class="st4" d="M334.2,285.4c-1.4-2.4-3.8-3.5-6.8-5c-0.6-0.2-1.2-0.6-1.9-0.9c-2.5-1.2-21.4-10.5-25.1-11.9   c-2.9-1.1-8.9-3.3-13.4,3.5c-2.1,3.1-8.2,10.4-11.1,13.7c-0.2,0.3-0.4,0.4-0.5,0.5c-0.2,0-0.8-0.1-1.9-0.7   c-0.7-0.4-1.5-0.7-2.6-1.2c-5-2.1-14.4-6.2-25.4-16c-9.9-8.8-16.7-19.7-19.2-23.9c-0.2-0.3-0.3-0.5-0.3-0.6c0.3-0.4,0.9-1,1.2-1.3   c1.3-1.2,2.6-2.8,3.9-4.4c0.6-0.7,1.2-1.4,1.8-2.1c1.9-2.2,2.7-3.9,3.7-5.9l0.5-1c1.6-3.2,1.5-6.7-0.3-10.3   c-0.5-1.1-4.3-10.2-7-16.8c-1.6-3.7-3-7.2-4-9.6c-3.3-7.9-7.7-8.9-11.5-8.9c-0.2,0-0.4,0-0.6,0c-2.3-0.1-5-0.1-7.1-0.1   c-2.2,0-8,0.6-12.9,6c-0.2,0.2-0.5,0.4-0.7,0.7c-3.9,4.2-13.1,14-13.1,32.4c0,17.3,10.9,33.7,15.6,40c0.1,0.2,0.2,0.4,0.5,0.8   c10.4,15,32.4,42,62.8,55.1c8.4,3.7,15.1,5.9,21,7.8c5.6,1.7,10.8,2.3,15.3,2.3c3.6,0,6.8-0.3,9.5-1.1c7.4-1.1,24-9.2,27.9-20.1   C335,299.1,336.5,289.4,334.2,285.4z M324,303.7c-2.2,6-14.6,13.3-20.8,14.2c-4.9,0.7-12.3,1.4-20.7-1.3   c-5.7-1.8-12.1-3.9-20.1-7.4c-28.3-12.3-49.1-37.8-59-52c-0.4-0.5-0.6-0.9-0.8-1.1c-3.2-4.3-13.8-19.5-13.8-34.5   c0-14.8,7.2-22.5,10.7-26.2c0.2-0.3,0.5-0.6,0.7-0.8c2.6-2.8,5.5-3,6.3-3c2,0,4.6,0,6.7,0c0.4,0,0.7,0,1.1,0c1,0,1.7,0,3.1,3.4   c1,2.4,2.5,5.9,4,9.6c4.1,10,6.7,16.1,7.3,17.4c0.7,1.4,0.5,1.8,0.3,2.3l-0.5,1.1c-0.9,1.7-1.3,2.6-2.5,4c-0.6,0.7-1.3,1.5-1.9,2.3   c-1.2,1.4-2.4,2.9-3.3,3.8c-1.7,1.7-6.2,6.1-2.3,12.8c2.6,4.7,10.1,16.4,20.9,26.1c12.1,10.8,22.7,15.4,27.8,17.6   c0.9,0.4,1.7,0.8,2.2,1c2,1,8,4,13.2-2c0.1-0.1,8.8-10,11.8-14.6c0.3-0.4,0.5-0.6,0.6-0.7c0.3,0.1,1.1,0.3,2.2,0.7   c2.9,1,19.5,9.2,24.2,11.5c0.7,0.4,1.4,0.7,2,1c1.1,0.5,2.3,1.1,2.9,1.5C326.5,292.2,326.3,297.4,324,303.7z"/></g></svg>